<svg id="Layer_1" data-name="Layer 1" xmlns="http://www.w3.org/2000/svg" viewBox="0 0 500 500"><defs><style>.cls-1{fill:#f58037;}.cls-2{fill:#e5e5e5;}.cls-3{fill:#81dbea;}.cls-4{fill:#d6d6d6;}</style></defs><path class="cls-1" d="M425.49,263.09a127.91,127.91,0,1,0-173-52.74A127.9,127.9,0,0,0,425.49,263.09Z"/><path class="cls-2" d="M107.32,211.74s21.34-120.29,123.74-123,148.47,99.12,138.72,119.53c0,0,83.75-19.4,96.3,54.15,12.78,74.78-104.35,64.26-104.35,64.26L76.07,325.52S-10.58,319,9.88,253.32C20.07,220.71,72.93,205,107.32,211.74Z"/><path class="cls-3" d="M302.67,339.25s21.61,18.32,12.17,77.92c-5.49,34.7,14.28,66,49.83,57.15,14.72-3.68,26.05-25.9,22.47-40.45a59.36,59.36,0,0,0-16.44-28.11Z"/><path class="cls-3" d="M130.3,339.66s21.61,18.31,12.17,77.91c-5.5,34.71,14.27,66,49.83,57.15,14.71-3.67,26-25.9,22.46-40.44a59.32,59.32,0,0,0-16.44-28.11Z"/><path class="cls-4" d="M237.69,88.74c-2.22,0-4.45,0-6.73,0-102.4,2.7-123.73,123-123.73,123-34.4-6.74-87.26,9-97.44,41.58a64.69,64.69,0,0,0-3.1,17.53v2.63c1.23,46.87,69.28,52,69.28,52l161.72.66Z"/></svg>